<svg id="svg"
    version="1.1"
    width="515"
    height="515"
    xmlns="http://www.w3.org/2000/svg"
    style="display: block;">
    <g id="svgg">
        <path
            id="path0"
            d="M45.112 79.081 C 27.468 81.367,10.278 95.752,3.887 113.580 C -1.096 127.478,-1.100 384.654,3.882 400.155 C 7.738 412.151,19.096 424.588,31.593 430.501 C 43.706 436.231,32.588 435.964,259.612 435.983 L 468.725 436.000 476.083 432.966 C 491.597 426.568,502.571 416.859,508.726 404.083 L 512.300 396.667 513.150 370.083 C 514.787 318.875,514.442 130.490,512.696 122.383 C 508.710 103.878,494.589 87.785,475.917 80.468 L 469.621 78.000 260.560 78.127 C 145.577 78.197,48.625 78.626,45.112 79.081 M465.278 92.020 C 482.578 94.521,496.144 107.828,498.935 125.032 C 500.384 133.962,500.384 379.038,498.935 387.968 C 496.144 405.172,482.578 418.479,465.278 420.980 C 456.539 422.244,56.973 422.318,48.258 421.057 C 30.531 418.493,16.866 405.232,14.046 387.855 C 12.630 379.127,12.630 133.873,14.046 125.145 C 16.792 108.222,30.633 94.451,47.357 92.003 C 55.276 90.843,457.256 90.860,465.278 92.020 M227.763 112.565 C 220.801 116.343,219.821 127.056,225.882 133.118 C 237.585 144.821,255.311 130.088,246.220 116.214 C 242.960 111.237,233.614 109.390,227.763 112.565 M112.994 134.934 C 91.745 141.398,86.402 168.614,100.513 198.500 C 108.665 215.763,107.594 218.882,90.358 228.076 C 73.833 236.890,66.000 245.246,66.000 254.057 C 66.000 259.036,65.991 259.035,125.700 258.758 L 181.500 258.500 181.809 254.775 C 182.591 245.344,168.302 232.032,151.089 226.156 C 145.562 224.269,141.312 220.383,139.453 215.516 L 137.727 210.997 141.479 203.249 C 143.542 198.987,145.637 194.825,146.135 194.000 C 156.427 176.946,149.981 139.000,136.792 139.000 C 135.448 139.000,133.292 137.875,132.000 136.500 C 129.530 133.871,119.268 133.026,112.994 134.934 M227.514 145.168 C 221.889 149.592,220.396 158.325,224.280 164.088 C 230.177 172.838,242.489 171.612,247.304 161.795 C 252.685 150.827,237.035 137.678,227.514 145.168 M228.119 179.885 C 219.494 184.481,219.960 197.799,228.922 202.836 C 234.705 206.086,240.241 204.686,246.000 198.517 C 255.402 188.446,240.735 173.163,228.119 179.885 M276.961 185.094 C 275.482 188.665,275.517 195.229,277.030 198.056 C 278.048 199.957,279.901 200.000,361.515 200.000 L 444.959 200.000 446.980 196.040 C 449.500 191.100,449.505 189.341,447.011 185.250 L 445.029 182.000 361.636 182.000 L 278.243 182.000 276.961 185.094 M229.270 211.436 C 220.485 215.381,219.555 228.572,227.615 234.912 C 234.586 240.396,246.963 235.095,248.506 225.965 C 250.243 215.681,238.898 207.112,229.270 211.436 M277.047 228.797 C 275.528 232.130,275.764 238.642,277.526 242.050 L 279.051 245.000 345.003 245.000 L 410.954 245.000 412.633 242.438 C 414.667 239.332,414.975 232.191,413.215 228.902 L 411.929 226.500 345.011 226.500 L 278.093 226.500 277.047 228.797 M229.500 245.529 C 227.300 246.321,225.399 246.977,225.276 246.985 C 222.446 247.175,221.174 259.503,223.517 264.033 C 226.394 269.596,236.014 271.897,241.846 268.416 C 256.322 259.774,245.524 239.756,229.500 245.529 M277.561 272.217 C 276.007 274.435,275.434 282.363,276.607 285.418 C 277.154 286.843,285.570 287.000,361.560 287.000 L 445.906 287.000 447.573 283.488 C 449.152 280.161,449.137 279.725,447.295 275.238 L 445.351 270.500 362.236 270.244 L 279.121 269.989 277.561 272.217 M87.500 278.865 C 80.705 281.958,76.474 288.639,71.924 303.461 C 69.722 310.633,67.489 317.882,66.961 319.571 C 64.924 326.080,65.774 374.116,67.989 377.750 L 69.971 381.000 79.414 381.000 C 90.379 381.000,92.000 380.089,92.000 373.929 L 92.000 370.000 123.500 370.000 L 155.000 370.000 155.015 373.250 C 155.044 379.429,157.936 381.000,169.279 381.000 C 182.113 381.000,181.437 382.740,181.795 348.768 L 182.090 320.742 177.634 308.060 C 171.710 291.203,168.450 285.354,162.414 280.755 L 157.500 277.010 124.500 277.027 C 94.736 277.042,91.108 277.222,87.500 278.865 M227.615 279.088 C 217.361 287.154,222.079 303.000,234.734 303.000 C 248.341 303.000,254.101 286.672,243.102 279.283 C 238.591 276.252,231.336 276.161,227.615 279.088 M147.145 304.873 C 147.499 305.218,148.934 308.712,150.332 312.637 L 152.876 319.775 149.813 320.387 C 145.783 321.193,104.848 321.013,98.757 320.162 L 94.015 319.500 95.469 316.710 C 96.269 315.175,97.686 311.501,98.617 308.545 L 100.312 303.170 123.406 303.708 C 136.108 304.004,146.790 304.528,147.145 304.873 M229.316 311.943 C 220.035 316.157,219.339 330.021,228.180 334.593 C 232.706 336.933,241.208 336.093,244.525 332.977 C 255.565 322.605,243.274 305.606,229.316 311.943 M277.161 317.547 C 276.522 318.948,276.000 321.852,276.000 324.000 C 276.000 326.148,276.522 329.052,277.161 330.453 L 278.321 333.000 345.039 333.000 L 411.757 333.000 413.015 329.964 C 414.402 326.616,414.661 320.657,413.569 317.217 L 412.865 315.000 345.593 315.000 L 278.321 315.000 277.161 317.547 M95.545 339.455 C 98.956 342.866,98.956 349.134,95.545 352.545 C 92.263 355.828,88.994 355.647,85.489 351.989 C 77.904 344.072,87.813 331.722,95.545 339.455 M161.424 338.147 C 166.820 340.606,167.053 348.095,161.870 352.456 C 157.829 355.856,155.463 355.663,151.400 351.600 C 143.786 343.986,151.504 333.628,161.424 338.147 M227.930 345.420 C 220.934 349.381,220.196 361.185,226.595 366.750 C 239.448 377.925,256.329 359.312,244.028 347.527 C 240.432 344.081,232.198 343.004,227.930 345.420 M226.235 380.423 C 219.210 386.861,221.510 399.518,230.314 402.869 C 237.503 405.605,245.886 401.450,248.102 394.055 C 251.837 381.588,235.844 371.618,226.235 380.423 "
            stroke="none"
            fill="#000000"
            fill-rule="evenodd"></path>
    </g>
</svg>