<svg id="svg"
    version="1.1"
    width="515"
    height="515"
    xmlns="http://www.w3.org/2000/svg"
    style="display: block;">
    <g id="svgg">
        <path
            id="path0"
            d="M27.286 61.446 C 17.027 64.663,7.871 72.777,3.160 82.825 L 0.500 88.500 0.500 257.500 L 0.500 426.500 3.135 432.120 C 8.106 442.722,17.435 450.576,28.470 453.450 C 37.524 455.809,477.476 455.809,486.530 453.450 C 497.565 450.576,506.894 442.722,511.865 432.120 L 514.500 426.500 514.500 257.500 L 514.500 88.500 511.626 82.278 C 508.104 74.654,500.301 66.967,492.253 63.196 L 486.500 60.500 259.000 60.312 C 72.834 60.159,30.734 60.365,27.286 61.446 M485.653 79.721 C 490.753 82.448,495.339 87.852,496.859 92.922 C 497.693 95.709,498.000 140.105,498.000 258.187 L 498.000 419.641 495.250 425.064 C 488.138 439.090,508.166 438.000,257.500 438.000 C 6.954 438.000,27.173 439.106,19.750 424.998 L 17.000 419.772 17.010 257.636 L 17.020 95.500 19.402 90.383 C 21.977 84.853,26.760 80.567,32.748 78.422 C 35.853 77.310,74.863 77.115,259.000 77.289 L 481.500 77.500 485.653 79.721 M153.500 151.888 C 132.238 158.072,115.682 176.008,111.948 196.904 C 110.202 206.676,112.092 254.837,114.542 263.000 C 116.997 271.181,122.461 280.996,128.050 287.267 L 133.008 292.830 111.754 305.783 C 76.460 327.293,73.384 331.831,74.164 361.252 C 74.472 372.895,74.689 374.139,76.778 376.225 L 79.056 378.500 174.614 378.500 L 270.173 378.500 272.587 375.694 C 276.014 371.710,276.218 347.554,272.908 337.727 C 268.938 325.942,266.483 323.687,239.963 307.457 L 216.013 292.800 221.430 286.815 C 233.740 273.212,236.585 262.494,237.588 225.939 C 238.562 190.461,236.153 181.910,220.947 166.887 C 205.303 151.431,176.835 145.100,153.500 151.888 M194.000 169.516 C 196.475 170.531,198.725 171.648,199.000 171.997 C 199.275 172.346,201.663 174.104,204.307 175.903 C 218.596 185.627,221.540 195.458,220.093 228.617 C 218.564 263.680,214.809 272.578,196.728 283.975 C 191.491 287.277,189.737 290.437,190.640 294.948 C 191.429 298.895,190.679 298.357,222.000 317.454 C 257.916 339.354,257.000 338.424,257.000 352.968 L 257.000 361.000 174.403 361.000 L 91.807 361.000 92.153 351.670 C 92.645 338.429,92.190 338.875,126.879 317.642 C 163.981 294.933,166.164 291.732,150.720 282.682 C 134.978 273.456,130.516 262.298,129.171 228.789 C 127.767 193.818,130.983 185.043,149.792 172.526 C 158.566 166.687,183.044 165.020,194.000 169.516 M330.174 189.314 C 326.322 193.415,327.564 200.110,332.684 202.837 C 335.700 204.443,433.825 204.492,437.343 202.890 C 442.281 200.640,443.471 193.380,439.545 189.455 L 437.091 187.000 384.720 187.000 L 332.349 187.000 330.174 189.314 M334.000 255.692 C 326.836 258.377,325.639 268.211,332.072 271.537 C 334.445 272.764,343.051 273.000,385.527 273.000 L 436.154 273.000 439.077 270.077 C 442.741 266.413,442.924 262.186,439.587 258.306 L 437.174 255.500 386.337 255.315 C 358.377 255.214,334.825 255.383,334.000 255.692 M333.357 324.978 C 325.385 328.247,326.723 339.949,335.246 341.500 C 337.036 341.825,360.702 341.959,387.837 341.796 L 437.174 341.500 439.690 338.575 C 442.671 335.108,442.376 329.932,439.005 326.560 C 436.778 324.332,338.520 322.861,333.357 324.978 "
            stroke="none"
            fill="#000000"
            fill-rule="evenodd"></path>
    </g>
</svg>