<?xml version="1.0" encoding="UTF-8"?><!DOCTYPE svg PUBLIC "-//W3C//DTD SVG 1.1//EN" "http://www.w3.org/Graphics/SVG/1.1/DTD/svg11.dtd">
<svg xmlns:xlink="http://www.w3.org/1999/xlink"
    height="600"
    version="1.1"

    width="1200"
    xmlns="http://www.w3.org/2000/svg">

    <defs>
        <clipPath id="Canton">
            <path d="M 0,0 L 600,0 L 600,300 L 0,300 z" />
        </clipPath>

        <clipPath id="Diagonals">
            <path d="M 0,0 L 300,150 L 0,150 z M 300,0 L 600,0 L 300,150 z M 300,150 L 600,150 L 600,300 z M 300,150 L 300,300 L 0,300 z" />
        </clipPath>

        <g id="Pentagram">
            <g
                id="Arm"
                transform="translate(0,-0.324925)">
                <path d="M 0,0 L 0,0.5 L 1,0 z" />
                <path
                    d="M 0,0 L 0,-0.5 L 1,0 z"
                    transform="rotate(-36,1,0)" />
            </g>
            <use
                transform="scale(-1,1)"
                xlink:href="#Arm" />
            <use
                transform="rotate(72,0,0)"
                xlink:href="#Arm" />
            <use
                transform="rotate(-72,0,0)"
                xlink:href="#Arm" />
            <use
                transform="rotate(-72,0,0) scale(-1,1)"
                xlink:href="#Arm" />
        </g>
    </defs>

    <rect
        fill="#00247d"
        height="600"
        width="1200"
        x="0"
        y="0" />

    <g id="Flag_of_the_United_Kingdom">
        <path
            clip-path="url(#Canton)"
            d="M 0,0 L 600,300 M 0,300 L 600,0"
            id="Saint_Andrews_Cross"
            stroke="#ffffff"
            stroke-width="60" />
        <path
            clip-path="url(#Diagonals)"
            d="M 0,0 L 600,300 M 0,300 L 600,0"
            id="Saint_Patricks_Cross"
            stroke="#cc142b"
            stroke-width="40" />
        <g id="Saint_Georges_Cross">
            <path
                clip-path="url(#Canton)"
                d="M 300,0 L 300,300 M 0,150 L 600,150"
                stroke="#ffffff"
                stroke-width="100" />
            <path
                clip-path="url(#Canton)"
                d="M 300,0 L 300,300 M 0,150 L 600,150"
                stroke="#cc142b"
                stroke-width="60" />
        </g>
    </g>

    <g id="Southern_Cross">
        <g id="Gamma_Crucis">
            <use
                fill="#ffffff"
                transform="translate(900,120) scale(45.4)"
                xlink:href="#Pentagram" />
            <use
                fill="#cc142b"
                transform="translate(900,120) scale(30)"
                xlink:href="#Pentagram" />
        </g>
        <g transform="rotate(82,900,240)">
            <g id="Delta_Crucis">
                <use
                    fill="#ffffff"
                    transform="translate(900,120) rotate(-82) scale(40.4)"
                    xlink:href="#Pentagram" />
                <use
                    fill="#cc142b"
                    transform="translate(900,120) rotate(-82) scale(25)"
                    xlink:href="#Pentagram" />
            </g>
            <g id="Beta_Crucis">
                <use
                    fill="#ffffff"
                    transform="translate(900,380) rotate(-82) scale(45.4)"
                    xlink:href="#Pentagram" />
                <use
                    fill="#cc142b"
                    transform="translate(900,380) rotate(-82) scale(30)"
                    xlink:href="#Pentagram" />
            </g>
        </g>
        <g id="Alpha_Crucis">
            <use
                fill="#ffffff"
                transform="translate(900,480) scale(50.4)"
                xlink:href="#Pentagram" />
            <use
                fill="#cc142b"
                transform="translate(900,480) scale(35)"
                xlink:href="#Pentagram" />
        </g>
    </g>
</svg>
